<svg xmlns="http://www.w3.org/2000/svg" role="img" aria-label="EarthBuild" viewBox="0 0 600 540">
  <title>EarthBuild</title>
  <g fill="none" stroke="#2f8a50" stroke-linecap="round" stroke-linejoin="round">
    <circle cx="300" cy="200" r="170" stroke-width="7"/>
    <g stroke-width="5">
      <path d="m300 90 71 42-71 42-71-42z"/>
      <path d="m229 132 71 42v42l-71-42zm142 0-71 42v42l71-42zm-142 78 71 42v42l-71-42zm142 0-71 42v42l71-42zm-142 0 29-17m113 17-29-17"/>
    </g>
  </g>
  <path fill="#2f8a50" d="M101.984 490v-49.64h29.784v7.48h-21.42v12.92h19.04v7.208h-19.04v14.552h21.42V490Zm51.068.68q-5.712 0-9.01-3.23t-3.298-8.466q0-5.44 3.74-8.67t10.268-3.23h9.112v-2.652q0-5.644-6.596-5.644-2.992 0-4.76 1.156t-1.972 3.264h-8.16q.272-5.032 4.25-8.16t10.71-3.128q7.14 0 11.084 3.332t3.944 9.384V490h-8.296v-7.004q-.476 3.604-3.4 5.644t-7.616 2.04m2.72-6.936q3.74 0 5.916-1.836t2.176-4.896v-4.42h-8.704q-2.788 0-4.42 1.564t-1.632 4.012q0 2.516 1.734 4.046t4.93 1.53M184.196 490v-37.4h8.296v7.276q.68-3.672 3.366-5.814t6.97-2.142q5.712 0 8.908 3.672t3.196 10.268v3.536h-8.5v-3.128q0-3.4-1.768-5.202t-5.032-1.802q-3.4 0-5.168 2.04t-1.768 5.78V490Zm58.344 0q-5.236 0-8.33-3.026t-3.094-8.194v-18.496H220.78V452.6h10.336v-10.54h8.568v10.54h14.892v7.684h-14.892v18.292q0 1.632.918 2.686t2.55 1.054h11.084V490Zm21.896 0v-49.64h8.5v12.24l-.204 6.936q.68-3.536 3.332-5.576t6.732-2.04q5.508 0 8.806 3.672t3.298 9.86V490h-8.5v-23.528q0-3.468-1.802-5.338t-4.862-1.87q-3.196 0-4.998 1.904t-1.802 5.44V490Zm40.8 0v-49.64h15.232q7.14 0 11.39 3.468t4.25 9.316q0 4.08-2.346 7.004t-6.086 3.536v.136q2.788.34 4.964 2.006t3.4 4.284 1.224 5.746q0 4.284-1.972 7.48t-5.576 4.93-8.5 1.734Zm8.296-29.172h6.8q3.332 0 5.304-1.802t1.972-4.93q0-3.06-1.938-4.862t-5.338-1.802h-6.8Zm0 22.1h7.208q3.74 0 5.882-2.006t2.142-5.474-2.142-5.61-5.882-2.142h-7.208Zm47.668 7.752q-7.14 0-11.22-3.978t-4.08-10.846V452.6h8.5v23.188q0 3.536 1.768 5.508t5.032 1.972q3.196 0 4.998-1.972t1.802-5.508V452.6h8.5v23.256q0 6.868-4.148 10.846T361.2 490.68m25.568-.68v-7.684h12.784v-22.032h-11.424V452.6h19.924v29.716h11.492V490Zm16.456-43.656q-2.584 0-4.08-1.326t-1.496-3.57 1.496-3.57 4.08-1.326 4.08 1.326 1.496 3.57-1.496 3.57-4.08 1.326M448.852 490q-5.576 0-8.942-3.332t-3.366-8.772v-29.852h-12.308v-7.684h20.808v37.332q0 2.108 1.19 3.366t3.23 1.258h10.948V490Zm31.348.68q-5.44 0-8.806-3.876t-3.366-10.404v-10.132q0-6.596 3.332-10.472t8.84-3.876q3.876 0 6.562 1.972t3.774 5.508l-.272-8.568V440.36h8.5V490h-8.296v-6.8q-1.02 3.536-3.672 5.508t-6.596 1.972m3.196-7.344q3.264 0 5.066-1.972t1.802-5.576v-8.976q0-3.604-1.802-5.576t-5.066-1.972-5.066 1.768-1.802 5.44v9.656q0 3.672 1.802 5.44t5.066 1.768"/>
</svg>
